<mxfile host="65bd71144e">
    <diagram id="pW0LpV5j2Yc9wjvTmvIZ" name="Page-1">
        <mxGraphModel dx="994" dy="788" grid="1" gridSize="10" guides="1" tooltips="1" connect="1" arrows="1" fold="1" page="1" pageScale="1" pageWidth="827" pageHeight="1169" math="0" shadow="0">
            <root>
                <mxCell id="0"/>
                <mxCell id="1" parent="0"/>
                <mxCell id="2" value="Reverse Linked list" style="text;strokeColor=none;align=center;fillColor=none;html=1;verticalAlign=middle;whiteSpace=wrap;rounded=0;" vertex="1" parent="1">
                    <mxGeometry x="310" y="150" width="60" height="30" as="geometry"/>
                </mxCell>
                <mxCell id="8" value="X" style="edgeStyle=none;html=1;entryX=0;entryY=0.5;entryDx=0;entryDy=0;" edge="1" parent="1" source="3" target="4">
                    <mxGeometry relative="1" as="geometry"/>
                </mxCell>
                <mxCell id="3" value="1" style="ellipse;whiteSpace=wrap;html=1;" vertex="1" parent="1">
                    <mxGeometry x="290" y="280" width="80" height="80" as="geometry"/>
                </mxCell>
                <mxCell id="9" value="" style="edgeStyle=none;html=1;" edge="1" parent="1" source="4" target="5">
                    <mxGeometry relative="1" as="geometry"/>
                </mxCell>
                <mxCell id="4" value="2" style="ellipse;whiteSpace=wrap;html=1;" vertex="1" parent="1">
                    <mxGeometry x="410" y="280" width="80" height="80" as="geometry"/>
                </mxCell>
                <mxCell id="10" value="" style="edgeStyle=none;html=1;" edge="1" parent="1" source="5" target="6">
                    <mxGeometry relative="1" as="geometry"/>
                </mxCell>
                <mxCell id="5" value="3" style="ellipse;whiteSpace=wrap;html=1;" vertex="1" parent="1">
                    <mxGeometry x="520" y="280" width="80" height="80" as="geometry"/>
                </mxCell>
                <mxCell id="11" value="" style="edgeStyle=none;html=1;" edge="1" parent="1" source="6" target="7">
                    <mxGeometry relative="1" as="geometry"/>
                </mxCell>
                <mxCell id="6" value="4" style="ellipse;whiteSpace=wrap;html=1;" vertex="1" parent="1">
                    <mxGeometry x="640" y="280" width="80" height="80" as="geometry"/>
                </mxCell>
                <mxCell id="7" value="5" style="ellipse;whiteSpace=wrap;html=1;" vertex="1" parent="1">
                    <mxGeometry x="740" y="280" width="80" height="80" as="geometry"/>
                </mxCell>
                <mxCell id="12" style="edgeStyle=none;html=1;entryX=0;entryY=0.5;entryDx=0;entryDy=0;" edge="1" source="13" target="15" parent="1">
                    <mxGeometry relative="1" as="geometry"/>
                </mxCell>
                <mxCell id="13" value="5" style="ellipse;whiteSpace=wrap;html=1;" vertex="1" parent="1">
                    <mxGeometry x="290" y="400" width="80" height="80" as="geometry"/>
                </mxCell>
                <mxCell id="14" value="" style="edgeStyle=none;html=1;" edge="1" source="15" target="17" parent="1">
                    <mxGeometry relative="1" as="geometry"/>
                </mxCell>
                <mxCell id="15" value="4" style="ellipse;whiteSpace=wrap;html=1;" vertex="1" parent="1">
                    <mxGeometry x="410" y="400" width="80" height="80" as="geometry"/>
                </mxCell>
                <mxCell id="16" value="" style="edgeStyle=none;html=1;" edge="1" source="17" target="19" parent="1">
                    <mxGeometry relative="1" as="geometry"/>
                </mxCell>
                <mxCell id="17" value="3" style="ellipse;whiteSpace=wrap;html=1;" vertex="1" parent="1">
                    <mxGeometry x="520" y="400" width="80" height="80" as="geometry"/>
                </mxCell>
                <mxCell id="18" value="" style="edgeStyle=none;html=1;" edge="1" source="19" target="20" parent="1">
                    <mxGeometry relative="1" as="geometry"/>
                </mxCell>
                <mxCell id="19" value="2" style="ellipse;whiteSpace=wrap;html=1;" vertex="1" parent="1">
                    <mxGeometry x="640" y="400" width="80" height="80" as="geometry"/>
                </mxCell>
                <mxCell id="20" value="1" style="ellipse;whiteSpace=wrap;html=1;" vertex="1" parent="1">
                    <mxGeometry x="740" y="400" width="80" height="80" as="geometry"/>
                </mxCell>
                <mxCell id="22" value="" style="shape=stencil(7VrJclwpEPyavlYAxXr28h+OsDzqGI3kkOVZ/n6S6aAFxVNqfLRDt1aLbKAqKyvhvZO++3b76evNKbhvT48Pv9/8df78dHvS96cQzve3N4/nJ3w66YeTvvvy8Hjz2+PD9/vPl7+/fuoj+6c/Hv7sv/D3BZck+g4K7p/LF058+O+Lj5fhd+f7aXiVGszw4l4e7rO4dXyUmMn4ZpdTROPL44OO1Y7x3ovzBFDEtxWQJJMZ1EtyCwBbbokAktS6Aoq49jIgOknrnlUlFwJI4tcZ8BMU0CTlFVCk6suApCPqA5CiFDJDyoMGA5C9hEoAWFJaAcgMCSt+r66JK4FSKasUQyXkgWQ6R2lrWCu4RPaQk7R1STUO+h4DihQzQxupPAY00TVKLUgieSh+EOEKSJJIphFEZwBZAskDAIZ8DWElEoAltQ1QSB4AiGtYW5XIANAgXQGNZ7pJSRaQiOrlKtlZQGVshWytFeedo2HKeXBtmqKRVIOuNVsAq9FeEBtAiTDlMERiSkRlM4RRwhMgkERANpKZIVO9j1XUJCIMeh0DVIIhE+SbFITWoVvXGq3SSFFDrI1810yXFLJtQZANR8IasMVVjWsY6nkMQMmtXRFK1ohWAuCzBTAV6G3fbNpRNQbAVFBpkknJAWDIV6oUwlbsQasFODZDGNycGsQrZsN0xZKlMrMRxxYnQGRhzcO8TADWRmEtolqAsk1fgzgBGJfUWQcHANMlFJBbRQCZZpYSXiRv9FbCpVQkGLYmrvdq9R6AwIQM3FzDinpgPrfEUV9z4simQbVquBSGmzg23m50qKthauMnjgHRGqbMvTd0zkQJJo15aZgX03fTNfeHgAaZWc0GUqlEjLu4r5tGx2gkrC2OgpwAlWwa/cZkGkvyDFCtegPAdKk32S1KmdR07/tq88AM0w7Ijm+6DY2Y3DoNa7Wmr3sDQo0e1jUPqEHm4ZA4o0u9aF+hxjYDOwR18iULCKwemu1x2DTz0r2Aog0rc+sAmIaCxEVCDQDSVqLKZmjbQa6OI8VxlJwVY9A7scQFyyUAWNtFpg2XeomyGfIQ9/87Q7GJ63tgm2627fYo8QKqbssDSdzk/udUc9lIpiBAJi4bPwhIG/vgJlhcd0sW6DUC6Gr0Hl2R3i4le2yCd4iM38GavhqoW+9eZHPrzHyXJN5YgUq9NE6jxlZ25WG3AtF2dtQUE6beP/wGIFxK+0HOU52BJQtmSfxaMPrNYVVKb83jrDrlgZ2oYVyTyXQc7Ho7Nb2dmizgZzs1ga3O5iERamizThfkSySsMdq7lqpU7mPbzmVpxO1YZpA4c7FRKL2fzct0H8r6bs42cf0+lND77T70anB+wvvQZqf41e9Ds7MnObCP1SgqKG7egR1fn43tVKP0UdC1hOerEH6na8La7zrYo6BkZyhKzXRS+0gOfGTPjpIb5JxOcuzYBP9jnrtgkeyhX1SbB6hnIPTWak8QMVBqqFrDpIla426Y1gIK8L5kSWjUpu/21k027as9guMb5kN9tHvwOkzaMcDbPHh+akrb9Q9VyiDFZI1eIXh7Z8cf93mrYJGq8P4YmF4ewJBHM9yROt7On/zpqbNr97SGnaW/p/d61yfoY7ij3WNr4o77QWt0HD0o6Cij5+Hs1jOOuafhpKp+8P2KV4fjw/OrHF/Od3eXN0Hm/9tXP/DV5bUR/fAv);lineShape=1;" vertex="1" parent="1">
                    <mxGeometry x="285.2007158346962" y="187.20825183947386" width="44.267414178417994" height="74.753234017164" as="geometry"/>
                </mxCell>
                <mxCell id="23" value="" style="shape=stencil(lVnZUhtBDPwav6rmPp5J8h9UYYIrBFNArr9PT5xZdjS77eLNYLVX0kit1uzB37w+3D4fD868vr2cvx1/ne7eHg7+08G509PD8eX0hk8H//ngb+7PL8evL+cfT3eXv59vm2X79P38s/3C7wvOSgkN5Myfyz+KE+v//efLxf7x9DTYZ6Pti9239xLzYJ+jlLJvH8WPv5+NVGKfJafBPgXJgfhvpMQBELPERABBUh0AoYplAHw9hhyMGAJwQewYszc0p65KGJ+AY6mVHAKyagcAojIkS8FKHMsii2f20zE4yaSKopcyRoAUsaqokiZ7s2+fYs/4uz8ukypafm4pI8kkoTn0n1sS6qlDOfeqXBwy/Uw2AcVMZ5ylMoCTpKooiiVnVhDD6FJYmnsbgCpShZ27k9uAJNGPvRZ5DEnC2GsJ7OJoDKo5Ew6OueQ03wHgSaWWpRVXBEMJqXSPF4CXFAkAHjsddGS1lHSxZl5LoFw3PgFORlIaOehqxcmwfkZ517E0ihdHsoS0KpIsVhwhybIQyiqGStKKag0jBSBviRVf0ZyBNFhSS9Xoas1oIOJSRYuq4gOTM0DoXy8AdBxJa8W5KpcwgNkTSueIFYAxZc3TObie6D1AsDpLjpwDAKpakaXEn6BqCVmqHPC/Nlck4AjdAxAnEiikHwBQ8w0kkAmR4Rxc1QBLSACAHDXAsLRWcUYDGHsDEIsOOhDWAEBJK4zhQmKwZh67qBaSpi1EpVNudgpkSZu0TooVipgn1k49Z1hii2bX1qRXiqNoAEtTK7+kY8iMN6YCR5MmTgNKACGtjtXr3KSlq4PdJ4xEgya90nNB8UakM6hOmixxVdzIcuo5x9lVaTKMdiYePg6AxlOlkbus2wZ48QpQ+BOspuM2qQlZYo4qxQQtwLYTaAt10iWLYaoPgmp0CaOYrWTw2CoA0kAALSejSzVROoa2qCMJ4Cg9A/i+YCwbhOE7TRubUQfBogZAERPksiV5BaAoYRn42gRWmcUxU6KLFF5v3yzooOVGdDyG1IluAVxJa9FjLtprG0EI2iXWQZCuapWLocvl3c1spO9Y6MxqDWF1DHSVc7r6QqILPjooqO1yGazbaa1aHHs+gloHjT3qItXrrZbGLNnSt8HtS4GqydU6elfURJ5aUsSTB7RbCqWYegdu2we9cSTabgEbimronrNteydmbB7r6frg43QGnFi96VJ+ARQqllzoS9tSFok2T3NgdKlVKkmqjRMBRH4j6PT1W9O5bBuYtmlHpU/qlLiauKx1olYZaG/W/V7fgZQrN5paurXpSQjP6GsfTHg2PM00dnKf1zv2Rv1+ogc2rQBY9dmdz2wfrtknnX+2xszxOtqWpmdvfeVO/VEDCmScqD/Fa3smCa2u/yaXSA/bqR4Wibhjr9Qa7COJ9+OvJK7Z48P7+4/70+Pj5fXJ+nv9vgT/urxr8Z//Ag==);lineShape=1;" vertex="1" parent="1">
                    <mxGeometry x="351.3060025579839" y="184.87299252635364" width="153.08928880656413" height="41.205768422326514" as="geometry"/>
                </mxCell>
                <mxCell id="24" value="" style="shape=stencil(7VjLctswDPwaXzEkwOc5Tf8jM3FqT9044zh9/H2hulQFWN5pDz21N1nmingsFiA3cve6e3jZbji8nk/Hj9sv+8fzbiPvNsz75932tD/r00buN3L3dDxtP5yOb8+Pl98vD9PK6enT8fP0ha8XXGJqbUJx+HZ5E5k6/3jz/gI47J8XAKnE2QC4klQAEIrVAKRTBgDuxBaQI6UOAJmS9aEIJQEAppAMoGYKwOlYqbEB9EAlQEAqFqBhBU7HQtma1DNxBIBM0TrdK0XgdJQrkxoV5LRG3eaha+JAHjqJdSGGQAFEqV650KkBn/NwcLH+ZyLXqUcSfIgqChHV7nPQ8+31gWq062Xw5Mb66OzREMPvB7u+NeoNrU+WpU1ZBb6vpLelXBMJSLByjm2GcxnycavQks1YaiQgw6IhtSalOIxcBaRAYjkkmjPEoeAFTwUKkaKwz4LukBCrmdg5HWBYm5pkCy1VDGjj7zkP2GmtE7YA3RMxb1G5M0Ig93SL4raoWC2az5xqakOAQuxEWIZorgPEs2/S1AIAYZBzAUD8btcKlkkAmZoWWPE+FGBSY4oOgAtiIlP0eajIB2WCLWo1MiKAGnBFpgLyoD5Uy6Wq1AA62bIXSu3PETndKNhMV4FOaxA5eACSyp4GcxZaiYYSZWt3O6gYA9nQemhuKOmDLLcqzinZFGhcos4k7Q9IydSk7hpKH0auA+oYoxZjT8VhTa7iEhwBNHHihpIMAUoNl2kFQLZmP+CqSbCm2VecOh2QSXGQednXUT1ELwITAPUsnYvcRDzPyOtd8bqjVEgN7VDNAWZ5Xu/sxc/cOqRnNDtkn2lVDf77MzfaYXXmRiP0/5n7n5y5gWpHXwbabRkkuIxT4Fw2yiAk8tQt46YRHTEueYdTooocaF69hGFT0ENAsRSakgIox83HKMPerD677i9jx1uHDCd2PD6wvv7qukBnLGCPHihcnw1Dv9fXZ9/5cQmLVlR16+ENTB+MnEUCjsF65IrRxaeAfCUe/XGmEAk6s4lnUIH26/psv99gien65EVxqMwtB/7sEuw3APrw687taX84XK7slv/7Ozp9dbnfk/vv);lineShape=1;" vertex="1" parent="1">
                    <mxGeometry x="509.76365044619797" y="119.89440935042501" width="26.048024031000296" height="22.798797517179764" as="geometry"/>
                </mxCell>
                <mxCell id="25" value="" style="shape=stencil(7VjLbttADPwaXYnd5T7PafofAeLURl07cJy2+ftQFVYVaWnQFugtN1nmrJbkDHekge9e9g/PuyG4l+vl/HX34/B43Q/8aQjhcNrvLoerXA18P/Dd0/my+3I5v54ep9/PD2PkePXt/H1c4eeE846cH1HBvU13OFJOv+58ngDHw2kB4EAcFSBkarwNSEyBFcAXSm4bkAu5pgCJctiOL4446BTIgQxKJK/X9/3GenylWFW8Iw/Wr4FaMvEO5FsLMZv4ErfjmycuugN9gfX4SFV3TDpcQby0R++nQEa0RkHXx3tyZRvg3VyQGRGpoBQaZZ2Cl6agGlVLOmlyywCQbJGEdR50rcjfWbMuQR3kTKwBKZIDOQivi65SmaW0DmAqWstCXfgEqbpWTmViJAXuSpwBFTZOckga0BiLP1HR4hE6BgBIjapOWsiCqCHzyIwLATSQdMydOTNAkgYCip6ibpywC5GPJUWTg6cKkuYbSdfc67YFSAbg+xxfB2Q7lEomD6ZwFE0bgKcMko6Jgu50Fk170DgpqwHkzt91QKFWbgBgS1lOhmi3lJCmG7GzSVekODkbgi0r48PKKs5TAuQTQDCADOktOy6G3qF7gq3zORl6Y2pkqYk+IERAFRwQKdknLI6MdTI1cjeiZvCIyH3LiznjkEaFnDeTjJFGVwGgrqFaKxZFtUhB3lox3yD7/sVZGXP44aw+nNV/dlajpdAskncOVKZxCmtADHC+iK6qsWIyogBRhQemcWI7kHKkiGaoZnFCQPzSpsoWkBHA9am+2BLyn4WiybnCHcVOgzk+UwTrB/J6VojRqmB9SU8zNTnoeW6YHUVNoMmun6uLaYrE7O1BK+M1IIfUR8nM0oqdrc1XLFYAuvnrN/M/AMjF7w8BT4fjcfqOsPzffjiQW9NHB75/Bw==);lineShape=1;" vertex="1" parent="1">
                    <mxGeometry x="544.8450341069624" y="128.48616974998697" width="13.243043131217746" height="15.939771777669534" as="geometry"/>
                </mxCell>
                <mxCell id="26" value="" style="shape=stencil(lVfLbhsxDPyavRKSqAd1TtP/CBCnNurGgeP08ffldqGtyXgnyG0taSSRnBnRE9+97h9edlMKr5fz6fvu1+Hxsp/4y5TS4Xm/Ox8u+jXx/cR3T6fz7tv59Pb8uPx+eZhXzl8/Tj/nHX4vOKEUZlAKf5aBQLX9G/i6LD8enq+W63QRsz5GCgEAOqVqAY2abANYb9QMIGWqfRuQdT8bAicqvA0ojZgNIGvQdRtQG8ViATKiuglobSRxAEqlBGLomdhmqepIAYBKOVlApQgK14WiO6FTRSd04m4ALVMGaVVAtwAJFBIEiAMUEgyIttI9UkJXekeNXqgC8um02Epr3loEAKZmuRRDgILQKxfLDQ0rgyNE6+SCaBQQQMb0CmAKoNRSqVtRS6OeIaDaEyRRQlfSE2xemxIY0HW+gANEYsANzVJxglCZ4zpkG7RKThCZmGr2gAhcQMnUnOQKMdKo2oYlUxUYtDInuCwlah9IzpKvydDUTcAVm9dSM3WU1z5cYgVoaZCEZGh4pat6H2Cfel9x/G4kSNVqXE7VHb5BXdksHgCd6bMA9dLogtZEA25UpmzJNEsOnFB40P/KvxGZMo9n9oquHTxanMczu75yqlpwQiqeGiVQAsakrUK0lc6Y39lbJfOQ1O0QKNqyaeuAzDsOW1x7E8ztQN31MhWaUiC28SZtZYDFvBNnFCpw/2DvE9fGY2N9cfuH0RVs5Mf1bpUEpCeNHmdNP3RgHl3aehtY3OIlFiD/q+/Z8Dv+ycb5w+X68b9Hfzocj0uLfz3ve3odWv4P8P1f);lineShape=1;" vertex="1" parent="1">
                    <mxGeometry x="561.9726755784732" y="125.96820030104368" width="31.680470555316788" height="11.846998872188806" as="geometry"/>
                </mxCell>
                <mxCell id="27" value="" style="shape=stencil(lZbZTsNADEW/Jq/WjGf1M8t/VKLQiNKiUra/x1E0oZ62V/AWgu/E9j12Zwg3b5vV63pg93Y87J/Xn+PDcTOE24F53G3Wh/GoT0O4G8LN4/6wfjrs33cP89+vqylyenrZf0wnfM06iSRxUrH7nt8ET3l+cz8LtuPuRJAjJTGCHIiBIHoK2QjEU3XXBSGTL1aQieW6gIVStQIhz0DAxPYL3jlyICefyLH9RKUKqq59lyRRyaBoyqFvkqvX4x1le35NsEdanjWhCC64WbTEM1WQv1aXLBWFUgDne4rWAsUoJSCoFKzJWcECAl4afiLwQBC0QutxZpICBIqANS3nZuPlUQjkOxc8FTQ7qZ+dUqiAlFTgOy4i5Cgy5W52XEP9WtGuE+gKQWQrSt0oLFZeNi62npyMsyCWSo+GCiJiyZ1NZyYBKaWzmpkKiFe4LUlVUwTTtiyfJV5R9SheOiwiVVBwJPYWVF2QiIp/xusG7mYtCKQoSY9dgRtbl0O2HQ1UwRzk2g+OpwQaWvR8W7EjBoZN27N28Wid6hTG1MUjpKsCbIlgGC+avz0/UQWGTbzbeGkNvhwvjcelnwHPpDtjWjc4WvD6iWR/EdRjRjWXxvwiKI2qy4LYUv7jXecPlyN9+L1aPY7b7XwzO/1/fxXTV/M1Ltz9AA==);lineShape=1;" vertex="1" parent="1">
                    <mxGeometry x="570.6070055717807" y="126.12774574790285" width="8.26928424226935" height="9.660088860883548" as="geometry"/>
                </mxCell>
                <mxCell id="28" value="" style="shape=stencil(lVfbchshDP2afdUAAgHPafofmYlTe+raGce9/X21s8U2wns8edsFHYTOkQRM/PSxfXnfTMF9nE/H75vfu9fzduIvUwi7w3Zz2p31a+LniZ/ejqfNt9Px5+F1+X9/mS3nrx/HX/MKfxZciOR4RgX39/8I8TLwdbHf7w439swUXWdfKPh1++jJ9+v7RCUCQG7rXTYUSQAgMc1zNwCO0EOqlGIHiEIRxCy6pdoBUqEU1gE5Efcx5EA+rQOKcpJ7VjUGWQfUSqGntSYKeR3gnSPXC1eFGLuQnteaKQIXtZDvo9aRWAAgkaQeUBvT9wGBYrWAAoQohar02XflYU2JGD7lIlAQC2DgIVfKdaAJRJ21wsogBOA1ZyrGg0oNlFMPYmJIzef9oB0lk0yRGLHEQ74yCdJBKIkFeJRMjnwcAGBLOp2qBUQE0C0lG7QDjUZ1zcECKmg0c6plq0NFBTECcivC1S0ZHbRqURfQoI2HSg60squuNwB5INzQBSpKvntbqg+Sb/CQAEtzeg+dLOMSlUGHApT+NEC0vvpsVRoQrSlQ6pXO3Hi7f/Byq+AGEFUGBK1XAelZioUcoDUk2zVY4DnqC5VeuKAnNag4z1R6D7pEAICh8XkP25JvBX+5CcDW7VptXRhqPWfF3BzRDG8+ztZBaP1mZe/F3MTgFYNt8/KwnUqbbeau3bJWiDdHlINtSGUxjQ4f4z6O6zu0fqZcjD2DLjdPi7EvyD60E/vKJsr8z17LH9vrx/UN8Lbb75cnxO28fTPo0PLe4Od/);lineShape=1;" vertex="1" parent="1">
                    <mxGeometry x="608.4081732607196" y="96.40673785793433" width="12.698267136532195" height="40.75218771856373" as="geometry"/>
                </mxCell>
                <mxCell id="29" value="" style="shape=stencil(lVbLbttADPwaXQdLcp/nPP4jQJxaqGMHjpO2f1+qglVzbTHITZY5qyVnhuQgd+/bp7fNwOH9dDz83Pwan0/bQe4H5nG/3RzHkz4N8jDI3cvhuPlxPHzsn+ffb09T5PT0evicTvg94xJqnkAc/swvMqHQvzePc/xu3F/Ec0QpBhArAq8DYgBXA5CEVtYBOaAFA2ACh3VACwj2SgE1OfGMRF188M6PaNHEk5txKwjNZozqnV9RLAda0ezEtz6eBCIuoNkLUUOoLiCypUBp91OgDtCQPUAGW4AI2FFFEzRLmspIPBYIMfWAFNcBtV3RtnzzNqD0upPgJl0Tss1B7dccpdbYu1OlGn1A5x2KyA7TeqVieWhgr0gFbKvqC0OLKjZlQvKkSsiWhMXca96k1MVHT9n5StlfCZstxxnJi299byFyARSW5rMgyjmnVft3/ZFRvZwrslhA9e2fexUJgx0nKAulM6cq16P5u4CsRrFOSOV8ydtjJyHaHEqEOEpS4RdbJfWGxwMtU2axTgN53unNfMH97aRvfKB4oxat83J1W6Scx+oSr9uAUyLqR/80SR3SQt9bakVsXnw3RKo2YEenV84p2rycwRkglgCVRHZkTSDbi4qe4PDFiFZBWZuFU894XiOWeEF27v/dXe3reH34vxi+jLvdvFde/t8vkvpqXkLl4S8=);lineShape=1;" vertex="1" parent="1">
                    <mxGeometry x="605.2577224323429" y="123.84041524890483" width="20.863188448556684" height="8.901699104624413" as="geometry"/>
                </mxCell>
                <mxCell id="30" value="" style="shape=stencil(lVbbUhsxDP2afdVYvsl+BvofzBCanaYJE0KBv0fbrbeRNznA28bRsXx0dBvCzfP2/mkzePd8Oh5+bV7Hh9N2CLeD9+N+uzmOJ/0awt0Qbh4Px83P4+Fl/zD/frqfLKev34c/0w1vM44dCU8o797nk5gp+r8nP2bAbtyfAWKg4g3Ah3bFRYBECsECKAAHxZFLxl4PHLBPVGNnn8N1+8oUnWVMnIB9omLfozHjCgCljxAXYsCA3cJwCZGQE+CikhcDCJk4A0BeyRwpAtWqp1QMIDmq4ElFmqoLIBEDHYrqYDkkzbwCEilRtkKkSAWQFrfyoCdA6px7gGa7AOVybDItOqSW7ZcBgVJXDJk8qAb1UKwOrIFGTyrkrNK1ubwcJBW6o4DLWe+vXbmhmJbY57ZrF1y2r5TtezxlkBU1UrJ8hSoqf31/V50qGaqEump4Sgl5qCRW4xBwwxASm9iRm89rnLlrYbWxuhbUf93hrHRcxAD5DiCVvnS07wsg7VPrP0ueCmXgwTN52+c10BmQ5rwqHYdHCWuq2bhqtghK7jZpFnsdRsA+ke84MwnoYFqblnLBw1mHuRVBh6kH71nNHdH+BETT22xEtWMWcD/38cwOTh3dLVZZl1HDbiPprA4KeP+07dha/mTb+cJ6pB//l6vHcbebd7Pz//tlTI/mRS7cfQA=);lineShape=1;" vertex="1" parent="1">
                    <mxGeometry x="635.1167367250812" y="118.15181927586309" width="10.42784914953063" height="6.7303691482011345" as="geometry"/>
                </mxCell>
                <mxCell id="31" value="" style="shape=stencil(rVbLbhsxDPyavRKiqAd1TtP/CBCnXtS1A8fp4+/L7WLdpeydoEBvsjyzEskZioM8vO2fXndDDG+X8+nr7sf4fNkP8mmIcTzud+fxYqtBHgd5eDmdd1/Op/fj8/z79WlCTqtvp+/TF37OPCUtEymGX/NGyiTyZ+fzjD+MxxVeIqk4gu3UuE3IhSQ7AjcKuk3QQlodIZACfAsUucMHBnih1PyFSBHeAvApKhQawCtlnyGOlNABjao/wCLgAAkteYIuSd4ihK5oFhS6UiX2hCTLzn1CouSrnJQYncAUfdA5QB1ppRZuCCBLmpbvra4UQAwaKeQ+aKQktTJpn1Yu24TaKHrpWeEYaNsIyZ9g5mkoBsuJl4aJL1YYdPNZytSAujWT+jIwVSA9bYtZVu5E2javSIdvQBYtU/LdwpSI8DcyYqsiIrT+AK7LFe8SOFwjvFY5U0Ydo/XmEYFJtSD6rs1Q2lOWfI9MBZrHyiA39uT0HwmFKfsrVcEvT6XslWotAdmTpW/EU6IRIfRv26qW99VN7Atnzb8BP2cqHb5AtUqvvckeQBjcu99SJOD7gbIvmvIH+E7ZNcG3M/TmL9eMbeDVl9hUUoEm4tJur6LLsD0mCl2zY/iW2yvp4011GR429PBv09THeFv8Hd1exsNhnvzW//ejnm3NY6I8/gY=);lineShape=1;" vertex="1" parent="1">
                    <mxGeometry x="644.2282417827521" y="132.34308037840185" width="15.825857523889681" height="6.434634346595885" as="geometry"/>
                </mxCell>
                <mxCell id="32" value="" style="shape=stencil(7VjLcloxDP0athrbkl/rNP2PzIQ0TClkCH39fXVLfYPsyyFs2k134CvZlnR0JHnFd6/PDy/rVXCvx8P+8/r75vH4vOIPqxA2u+f1YXPUXyu+X/Hd0/6w/nTYf909nv6/PEyS068v+2/TDj9OetUR10kruJ+nlUCcfi98PMlvN7tzeSafjbwnqUA+kgQj7yhmIJ8ocrc/I/nctmvyTFmAfCEpRl43QPKVgr2/D9cUcmeAHhkvK3jnyDkbAqHKN2mwp+RvuRQX8u4Ws0XIoRMGv0rFCur3ZBRioIKuNCAjxobFd0JPFWq5rFD0xp1CIQZXyoVyNArJUwXZkD0Va3RiqgBNSYitW1OkEi4rxNQ+zwqZKlDQMLG9UnbQaAkkFnxZOQHAlRN566UcKYI4sKNiOSmrDYCUlLOSVSgOnuBTS5dZQcgjGiMnVl5XwAGZsmUlBWMEJJAoWGxPCQgslmbemXwBMQgN+LN8hvYqndgYV10BKHK9fFEaBiBSAutAJ9DeQX5KDLh/558oVECe+V5eElWwf2h4nOU9BYAHadE/498I/K94sPjkSh6wae6JSLM0I27smU5pICC2ptL5M7eKcqFEUbAJozQkIMB+RETGhb99nRGXGt0vk/uQYUwJ7J+GDC6wMYqNA+ey/1all1mu9U1nBwgIQSA3GJBhynQhUwchCnLkSx+ACO4z9CAaYdSDaFWxEFUIFRAATSi7/1SpQIAX5TFEu0qpWcSoUdPuwSalBl1A0mvIuhZHeUBQpRybcWkNw7JCpGSdqrBK4ASlqWyjrH5DiSylz4OpnUV5MJQyL+3M5URTGFuj/QzdS01Uzy2ww9EuzdtAM0y0UvpihhP5b4w4qbv/zSMOCPHyiIMV/o84fxjm2ohjc+efjzjj+K4KDoRufB/QTsrjIaqbJyJD0tN060/wsBcpufeSZFjKtfAVSxjaHaExTRU6Gxh3L6rgu37NN6veqTA1ECAO45U8nkBGoz3D+j+6tUAaXogbrLcjMLjx8juRd+Vl6qq8/nh7BnvabLenV7Tz7/2zmS6dntz4/hc=);lineShape=1;" vertex="1" parent="1">
                    <mxGeometry x="369.61702433016353" y="265.68924117202005" width="49.10019354339033" height="8.173087107731135" as="geometry"/>
                </mxCell>
                <mxCell id="33" value="" style="shape=stencil(rVjLbhsxDPwaXwlJlETpnKb/ESBObdSNA8d9/X25NbRe0t4JCvTmbDTL15Aa7oYf3ndPb9tNCu/n0/Hr9uf++bzb8KdNSvvX3fa0P+uvDT9u+OHleNp+OR2/vz5f/n57mk5Ov74df0xv+HXBCVOrEyqF35cnnWL6++Dz5fxh/7o4Xxu1bM7HTLEAAN8A1EJcBxS1EAwgZeIOAEzJAjhQrOuALJTEAioxAkRiNoCcqIKguVBLFtBIBAAixWYAJY8ndwGaE4kGUNUlEEMKVGyWtJQV1CHWEeIAKFcKA0Ci2C1ALeR1QKdukyQaQgAGZJR1BmQKgBkpUbdJkgoBShxuPoQMQuBOycbQIgXQP1cezACmDOqm7ZAt91ohAYAq1GzQTagAlzQn0TKjNSrAgnocnYVOAbC7F89uBTBwqVeS4gGQSo2inTI9UAb907VwNoYeYVoV0KxLnYmRS0pv2w6aBpilPvpxBsxpWAta3OxuI6r7gJkIM0DrADpOHQjsAR0B8miXJQCl9aZFFYD6Qcvks9QwIFC15NM0BAxw94kWLqO0KsBliYfNNYA4lxJ2KfqpMb0C1eFei0J6Zz/tpxZF9K6UsgdkRG/xN5bGgJSD1rW7OkRKYHpPDdR9WgUAYggUnAklMDYhzkQdbFkDBAcQ3NRC3ZVa84DIVKm4wfRhqZ2FRR7+E6Il4hunMgCIzsbiw0Z6ptbxvkViK5AnpY5/L0sHKpGrF6JTk4BbS1Wkn8dp3AH39Yn4u31iOFJAfXi8aDrUEqrJmqWfigHU1nncBwt5ImD23TSQ6B2DxLrXSypXOvAnhjEYZwBTQLI1eyWgCiqBqsXux0yJoyz3q8a+G5QpggA3G820UABusw4hmyVdKJBuzapb7WxVmxUM41w9kVQro2bQnPg1rsJxX8RvAzHCkaH7S3KVHtfqms7NNuYIma3rDtv3B9jNVQdWcefRVilhLC/X8yheiV7jhsHc++eTr4BudOBemDZ7nx80KnSXKlaUJJh/ndjRDi+sh/W8I3WGW8Z03r5/XqpX/XHb4bhS1uJ194HuEIDQ//ql5OPz+uP6WeZlfzhcvuos/+8/4+ijyycgfvwD);lineShape=1;" vertex="1" parent="1">
                    <mxGeometry x="359.03666755960217" y="240.95409852039825" width="42.41885702533864" height="39.120993848799344" as="geometry"/>
                </mxCell>
                <mxCell id="39" value="" style="edgeStyle=none;html=1;" edge="1" parent="1" source="35" target="38">
                    <mxGeometry relative="1" as="geometry"/>
                </mxCell>
                <mxCell id="35" value="" style="shape=stencil(fZJLbsMwDERPo+1AIvVdp+k9AsSphbp24Lj53L52taiZ1NpRFJ80JEfx7tIezo0ifZnG4bO55ePUKn5TRLlvmzFPc6R4r3h3GsbmYxy++2M5nw9L5RJ9DdflhXvhUoSzC0X6UTJs4ek3816ALvcrwGgNrQXhIgJvE2kGkgCiRnDbQDDQQQDJwVcAG8AkgJXKfwmyIC+/IERT0QQTRX1w1aZfh0TwodICWOqhiFRbQwI52QBSRb81INlAfUDegeXSDKzfro8eWuoxjCSAOfhz4Sl3XTHx+v7ZtXOqOJ73Pw==);lineShape=1;" vertex="1" parent="1">
                    <mxGeometry x="336.2513627666028" y="330.26226220182934" width="1.4863480035267003" height="1.4863659782486138" as="geometry"/>
                </mxCell>
                <mxCell id="36" value="" style="shape=stencil(fZJLbsMwDERPo+1AIvVdp+k9AsSphbp24Lj53L52taiZ1NpRFJ80JEfx7tIezo0ifZnG4bO55ePUKn5TRLlvmzFPc6R4r3h3GsbmYxy++2M5nw9L5RJ9DdflhXvhUoSzC0X6UTJs4ek3816ALvcrwGgNrQXhIgJvE2kGkgCiRnDbQDDQQQDJwVcAG8AkgJXKfwmyIC+/IERT0QQTRX1w1aZfh0TwodICWOqhiFRbQwI52QBSRb81INlAfUDegeXSDKzfro8eWuoxjCSAOfhz4Sl3XTHx+v7ZtXOqOJ73Pw==);lineShape=1;" vertex="1" parent="1">
                    <mxGeometry x="320.2513627666028" y="332.26226220182934" width="1.4863480035267003" height="1.4863659782486138" as="geometry"/>
                </mxCell>
                <mxCell id="38" value="" style="shape=stencil(fZJLbsMwDERPo+1AIvVdp+k9AsSphbp24Lj53L52taiZ1NpRFJ80JEfx7tIezo0ifZnG4bO55ePUKn5TRLlvmzFPc6R4r3h3GsbmYxy++2M5nw9L5RJ9DdflhXvhUoSzC0X6UTJs4ek3816ALvcrwGgNrQXhIgJvE2kGkgCiRnDbQDDQQQDJwVcAG8AkgJXKfwmyIC+/IERT0QQTRX1w1aZfh0TwodICWOqhiFRbQwI52QBSRb81INlAfUDegeXSDKzfro8eWuoxjCSAOfhz4Sl3XTHx+v7ZtXOqOJ73Pw==);lineShape=1;" vertex="1" parent="1">
                    <mxGeometry x="336.2513627666028" y="248.77589622358073" width="1.4863480035267003" height="1.4863659782486138" as="geometry"/>
                </mxCell>
                <mxCell id="42" style="edgeStyle=none;html=1;exitX=1;exitY=0.5;exitDx=0;exitDy=0;entryX=0;entryY=0.5;entryDx=0;entryDy=0;" edge="1" parent="1" source="41" target="3">
                    <mxGeometry relative="1" as="geometry"/>
                </mxCell>
                <mxCell id="41" value="dummy" style="ellipse;whiteSpace=wrap;html=1;" vertex="1" parent="1">
                    <mxGeometry x="190" y="280" width="80" height="80" as="geometry"/>
                </mxCell>
                <mxCell id="43" value="" style="shape=stencil(pZTdboMwDIWfJrdHjvN/3XXvUal0oDGoKN3P2y8ogtWVyM3uTPCXE+fEVuZwa0/XRjHd5ml8b76689wq86KYu6Ftpm7OkTJHZQ6XcWrepvE+nMv39bRkLtHH+Lns8F04AtECMf2UBU3b0msB+m74D8AgK4AUoeN+fgAlmW8R9X6+JoQggSzpKoBHkAoxwttKBRbWSYCRKgrGwEiF4KErCpYRowB8/ZIcw8kjeQKbfcBreKmQt+BQsYFgpW/WwnAFCEgsAONh/D4QLbQEOMJWnM42Rek0a7i0D+SH4KSCdkgVheRAUkHrag0prG9z8wFUy0/rpW8lVF14aK4VeO62HPw196Xr+zIbHv8/D4O8VAaJOf4C);fillColor=none;" vertex="1" parent="1">
                    <mxGeometry x="149" y="158" width="68.5" height="11" as="geometry"/>
                </mxCell>
                <mxCell id="44" value="" style="shape=stencil(hZXdcsIgEIWfJrdngAV2ubb2PZwx1kytcaL9e/smk9EKmPWOkP34ORwODa3O+82pbZw5X4b+vf3utpd9Qy+Nc91x3w7dZWw1tG5oteuH9m3oP4/b+fu0mSqn1kf/NY3wM3MGxkyQM79Fx+tcfuiOWrmDCcvlDoGy8gRDy+UC6/LRDYJdrrcW4nOAYUUBGMQZQDrgCD5fkmfEpAAJnC8pMJIiEYVSo8jwfhnwpgQ4IGoAIUoGiEXQgAAXcyCAFJW8h7M5EOGVg/PjAqQErKZSdXDiIawADjFXSRzEKQfHFaCbb7SGzVVigY+K+Spr8BO3SjWDbr4RKNzKtzkf76HykhCMdh9CGQCiu5UMOOURoEcGVXtIujV8LEMgJTglZUIol2SNnnqx8ncSsGImdqVdk35HufJGsnpUVpt4cken8ULpDU2mSfbCrvY652NArkF3SzL95O5kvxFlMo2N/6dr1x0O88t3/7986sau+Zmk9R8=);fillColor=none;" vertex="1" parent="1">
                    <mxGeometry x="131" y="210" width="47.5" height="48.75" as="geometry"/>
                </mxCell>
                <mxCell id="45" value="" style="shape=stencil(hVXLcsMgDPwaXzWAkIBzmv5HZuI0nqZxJklff1+5Dm7AjnrDWAvLaiU1uLrsN6e2ceZyPfev7We3ve4bfGqc64779txdZdXgusHVrj+3L+f+/bgdv0+bIXJYvfUfwwlfI86CtwPIme9xw4AxvxvPY/ihO96FG2CswkPQwm+H5XALGNXwUIWzfxw+4+4AFe4IvjwdISinh3xYDmdgq5DBrMRE3kByjwHClitxGBIp/B2kEuA8WOUF3me1pxe7rMEigDgrkgFeTxhHcK4AkO6fkMCWOaOgUopyQ+k4lizzY0DyEKq8iQzKDWl+A+ZXLWfazGzNBlAz6hxBBEHJtZAirIV1SQFI6rhMnQdSOM11wgSsCetyMU4ABq9RsmCrgiNVpgUAg1NqTigZKgGimwbAWlYxOGvmIKBUAig7eBkQgEtKPkLUMp3qLkYOokJpyUx6DckVtqzS/2qI61bJAaJSEnNvBGlWijekrKmkFCJYhVLEGiA7rFAKnAssA5KBqLUmk2WfAAEsKs1PJkRpprvU3BCy+Ju8u+5wGAf3/f96UsvWOOVx/QM=);fillColor=none;" vertex="1" parent="1">
                    <mxGeometry x="92.40000000000009" y="282" width="42.47499999999991" height="43.5" as="geometry"/>
                </mxCell>
            </root>
        </mxGraphModel>
    </diagram>
</mxfile>